<?xml version="1.0" standalone="no"?><!DOCTYPE svg PUBLIC "-//W3C//DTD SVG 1.1//EN" "http://www.w3.org/Graphics/SVG/1.1/DTD/svg11.dtd"><svg t="1535708354673" class="icon" style="" viewBox="0 0 1024 1024" version="1.1" xmlns="http://www.w3.org/2000/svg" p-id="1391" xmlns:xlink="http://www.w3.org/1999/xlink" width="64" height="64"><defs><style type="text/css">@font-face { font-family: uc-nexus-iconfont; src: url("chrome-extension://pogijhnlcfmcppgimcaccdkmbedjkmhi/res/font_9qmmi8b8jsxxbt9.woff") format("woff"), url("chrome-extension://pogijhnlcfmcppgimcaccdkmbedjkmhi/res/font_9qmmi8b8jsxxbt9.ttf") format("truetype"); }
</style></defs><path d="M431.542857 797.257143c14.628571 0 36.571429 14.628571 36.571429 36.571428 0 14.628571-14.628571 36.571429-36.571429 36.571429H102.4c-51.2 0-102.4-43.885714-102.4-102.4V168.228571c0-51.2 43.885714-102.4 102.4-102.4h724.114286c51.2 0 102.4 43.885714 102.4 102.4v131.657143c0 14.628571-14.628571 36.571429-36.571429 36.571429-14.628571 0-36.571429-14.628571-36.571428-36.571429V168.228571c0-14.628571-14.628571-36.571429-36.571429-36.571428H102.4c-14.628571 0-36.571429 14.628571-36.571429 36.571428v592.457143c0 14.628571 14.628571 36.571429 36.571429 36.571429h329.142857zM629.028571 365.714286h329.142858c36.571429 0 65.828571 29.257143 65.828571 65.828571v526.628572c0 36.571429-29.257143 65.828571-65.828571 65.828571H629.028571c-36.571429 0-65.828571-29.257143-65.828571-65.828571V431.542857c0-36.571429 29.257143-65.828571 65.828571-65.828571z m0 65.828571v526.628572h329.142858V431.542857H629.028571z m95.085715 394.971429h131.657143c14.628571 0 36.571429 14.628571 36.571428 36.571428 0 14.628571-14.628571 36.571429-36.571428 36.571429H724.114286c-14.628571 0-36.571429-14.628571-36.571429-36.571429 7.314286-21.942857 21.942857-36.571429 36.571429-36.571428z" fill="#ffffff" p-id="1392"></path></svg>