<?xml version="1.0" standalone="no"?><!DOCTYPE svg PUBLIC "-//W3C//DTD SVG 1.1//EN" "http://www.w3.org/Graphics/SVG/1.1/DTD/svg11.dtd"><svg t="1535708411996" class="icon" style="" viewBox="0 0 1024 1024" version="1.1" xmlns="http://www.w3.org/2000/svg" p-id="1633" xmlns:xlink="http://www.w3.org/1999/xlink" width="64" height="64"><defs><style type="text/css">@font-face { font-family: uc-nexus-iconfont; src: url("chrome-extension://pogijhnlcfmcppgimcaccdkmbedjkmhi/res/font_9qmmi8b8jsxxbt9.woff") format("woff"), url("chrome-extension://pogijhnlcfmcppgimcaccdkmbedjkmhi/res/font_9qmmi8b8jsxxbt9.ttf") format("truetype"); }
</style></defs><path d="M1006.76962765 104.67478711H32.67811482a35.29060918 35.29060918 0 0 0-35.37603721 35.37751011v637.25619871a35.29060918 35.29060918 0 0 0 35.37603721 35.378983h148.59025574c10.76245748 0 20.78846653-4.8605597 27.56968374-13.11467379l197.96617777-245.43469836 90.36811506 74.58013341c14.44764547 11.94077499 35.67356239 10.46493232 48.4995484-3.24037314L721.38702016 435.91014729c17.09444116 10.46345942 37.14645925 16.36093851 58.66842844 16.3609385 62.35508933 0 113.20685403-50.7103666 113.20685405-113.21569139 0-62.49943324-50.70889372-113.20538113-113.20685405-113.20538115-62.35508933 0-113.21274562 50.70742081-113.21274562 113.20538115 0 15.03533132 2.95021245 29.48297681 8.40729538 42.60354219l-158.76355448 171.14472562-92.1296997-76.06039478c-7.22897787-6.04624169-16.66435529-8.84621863-26.09384109-7.95806183-9.43685029 0.87490075-17.98701667 5.59848103-24.03178546 12.96738411L164.46409007 741.93098581H68.05415202V175.42833442h903.18773003v566.50265139H483.31827909a35.29502789 35.29502789 0 0 0-35.38340169 35.37898301v173.50136064H240.09145315a35.29944657 35.29944657 0 0 0-35.38340167 35.378983 35.30239237 35.30239237 0 0 0 35.38340167 35.3848746h475.69561309a35.30239237 35.30239237 0 0 0 35.37751011-35.3863475 35.29944657 35.29944657 0 0 0-35.37898301-35.3775101H518.69726209v-138.12679631H1006.62822954a35.29502789 35.29502789 0 0 0 35.37751012-35.37751012V140.05229722c0.14139811-19.60720323-15.77914425-35.37898301-35.23611201-35.37898302zM780.0539757 296.45185219c23.43673513 0 42.45330672 19.01657159 42.45330673 42.46067121 0 23.43378932-19.01657159 42.45183381-42.45330673 42.45183379-23.44409961 0-42.45183381-19.01657159-42.4518338-42.45183379 0-23.44409961 19.00773421-42.4606712 42.4518338-42.46067121z m0 0" fill="#ffffff" p-id="1634"></path></svg>