<?xml version="1.0" standalone="no"?><!DOCTYPE svg PUBLIC "-//W3C//DTD SVG 1.1//EN" "http://www.w3.org/Graphics/SVG/1.1/DTD/svg11.dtd"><svg t="1535708306353" class="icon" style="" viewBox="0 0 1024 1024" version="1.1" xmlns="http://www.w3.org/2000/svg" p-id="1114" xmlns:xlink="http://www.w3.org/1999/xlink" width="64" height="64"><defs><style type="text/css">@font-face { font-family: uc-nexus-iconfont; src: url("chrome-extension://pogijhnlcfmcppgimcaccdkmbedjkmhi/res/font_9qmmi8b8jsxxbt9.woff") format("woff"), url("chrome-extension://pogijhnlcfmcppgimcaccdkmbedjkmhi/res/font_9qmmi8b8jsxxbt9.ttf") format("truetype"); }
</style></defs><path d="M353.32209778 529.77664s-0.02958222-0.02958222-0.02958223-0.05688889c0-0.04209778 0.02958222-0.07395555 0.02958223-0.1024 0-12.94108445-10.74176-23.44391111-24.02986667-23.44391111-87.15719111 0-158.05098667-73.91573333-158.05098666-164.79687111 0-90.86293333 70.89379555-164.80142222 158.05212444-164.80142222 13.28696889 0 24.02872889-10.48689778 24.02872889-23.44277334 0-12.95701333-10.74176-23.44163555-24.02986667-23.44163555-113.64465778 0-206.10275555 94.96348445-206.10275556 211.68583111 0 77.84675555 41.23989333 145.84035555 102.35904 182.61674666C95.71783111 568.79104 1.79996445 694.95694222 1.79996445 843.51431111c0 12.95701333 10.74403555 23.44163555 24.03328 23.44163556 13.27672889 0 24.02076445-10.48462222 24.02076444-23.44163556 0-160.06712889 125.34897778-290.26417778 279.43822222-290.26417778 13.28810667 0 24.02986667-10.47210667 24.02986667-23.47235555z" fill="#ffffff" p-id="1115"></path><path d="M728.17322667 540.20551111c77.90250667-41.71434667 130.90133333-122.35320889 130.90133333-215.02748444 0-135.41034667-112.87665778-245.55633778-251.61386667-245.55633778-138.74858667 0-251.60704 110.14712889-251.60704 245.55633778 0 93.5936 53.97504 175.06531555 133.12910222 216.4736-164.75591111 49.51267555-284.84949333 199.41603555-284.84949333 376.21873778 0 12.95587555 10.74403555 23.46097778 24.02304 23.46097777 13.27217778 0 24.01621333-10.50510222 24.01621333-23.46097777 0-191.16259555 159.40721778-346.71502222 353.51210667-346.78897778 1.63043555 0.16156445 3.15278222-0.20138667 4.70357333-0.40618667 2.18453333 0.40618667 4.41116445 0.63829333 6.71971556 0.40618667 194.31765333 0.07281778 353.88984889 155.62524445 353.88984889 346.78897778 0 12.95587555 10.75655111 23.46097778 24.04807111 23.46097777 13.30631111 0 24.04807111-10.50510222 24.04807111-23.46097777-0.00113778-178.83363555-123.07797333-329.91800889-290.92067555-377.66485334z m-120.71253334-16.40220444c-112.25543111 0-203.56892445-89.11075555-203.56892444-198.62528 0-109.56344889 91.31349333-198.67420445 203.56892444-198.67420445 112.24405333 0 203.55982222 89.11189333 203.55982222 198.67420445 0 109.51566222-91.31576889 198.62528-203.55982222 198.62528z" fill="#ffffff" p-id="1116"></path></svg>