<?xml version="1.0" standalone="no"?><!DOCTYPE svg PUBLIC "-//W3C//DTD SVG 1.1//EN" "http://www.w3.org/Graphics/SVG/1.1/DTD/svg11.dtd"><svg t="1535708174012" class="icon" style="" viewBox="0 0 1024 1024" version="1.1" xmlns="http://www.w3.org/2000/svg" p-id="916" xmlns:xlink="http://www.w3.org/1999/xlink" width="64" height="64"><defs><style type="text/css">@font-face { font-family: uc-nexus-iconfont; src: url("chrome-extension://pogijhnlcfmcppgimcaccdkmbedjkmhi/res/font_9qmmi8b8jsxxbt9.woff") format("woff"), url("chrome-extension://pogijhnlcfmcppgimcaccdkmbedjkmhi/res/font_9qmmi8b8jsxxbt9.ttf") format("truetype"); }
</style></defs><path d="M836.11095798 1012.58241517H182.25521186A179.12267116 179.12267116 0 0 1 3.29824119 833.45974401V179.76969838a179.12267116 179.12267116 0 0 1 178.95697067-178.95697067h653.85574612a179.12267116 179.12267116 0 0 1 178.95697067 178.95697067V833.45974401a179.12267116 179.12267116 0 0 1-178.95697067 179.12267116zM182.25521186 67.09308682a112.84231205 112.84231205 0 0 0-112.67661156 112.67661156V833.45974401a112.84231205 112.84231205 0 0 0 112.67661156 112.67661035h653.85574612a112.84231205 112.84231205 0 0 0 112.67661157-112.67661035V179.76969838a112.84231205 112.84231205 0 0 0-112.67661157-112.67661156z" fill="#ffffff" p-id="917"></path><path d="M981.92774849 359.72087444H36.43842014a33.14018016 33.14018016 0 1 1 0-66.28036032h945.48932835a33.14018016 33.14018016 0 0 1 0 66.28036032z" fill="#ffffff" p-id="918"></path><path d="M249.36407586 529.72999658m-42.25372918 0a42.25372918 42.25372918 0 1 0 84.50745837 0 42.25372918 42.25372918 0 1 0-84.50745837 0Z" fill="#ffffff" p-id="919"></path><path d="M417.05338501 529.72999658m-42.25372919 0a42.25372918 42.25372918 0 1 0 84.50745837 0 42.25372918 42.25372918 0 1 0-84.50745837 0Z" fill="#ffffff" p-id="920"></path><path d="M584.90839586 529.72999658m-42.25372918 0a42.25372918 42.25372918 0 1 0 84.50745837 0 42.25372918 42.25372918 0 1 0-84.50745837 0Z" fill="#ffffff" p-id="921"></path></svg>