<?xml version="1.0" standalone="no"?><!DOCTYPE svg PUBLIC "-//W3C//DTD SVG 1.1//EN" "http://www.w3.org/Graphics/SVG/1.1/DTD/svg11.dtd"><svg t="1535708405912" class="icon" style="" viewBox="0 0 1024 1024" version="1.1" xmlns="http://www.w3.org/2000/svg" p-id="1515" xmlns:xlink="http://www.w3.org/1999/xlink" width="64" height="64"><defs><style type="text/css">@font-face { font-family: uc-nexus-iconfont; src: url("chrome-extension://pogijhnlcfmcppgimcaccdkmbedjkmhi/res/font_9qmmi8b8jsxxbt9.woff") format("woff"), url("chrome-extension://pogijhnlcfmcppgimcaccdkmbedjkmhi/res/font_9qmmi8b8jsxxbt9.ttf") format("truetype"); }
</style></defs><path d="M981.752944 958.089173H947.454024v-7.067519c0-150.743638 0.02258-301.532437-0.090319-452.230915 0-15.286615-0.722558-30.64097-2.280574-45.905006a439.744212 439.744212 0 0 0-53.469283-171.833296C797.139405 111.183594 607.51312 24.454068 420.709327 67.514002 221.89301 113.351268 83.432856 291.642426 83.432856 499.784256V958.066593h-5.961103c-12.283484 0-24.612128-0.13548-36.895612 0.04516-14.654377 0.203219-26.960441 10.07065-30.934509 24.431488-0.316119 1.128997-0.812878 2.235413-1.174157 3.296671v10.31903c0.541918 1.761235 1.219316 3.49989 1.806395 5.261124a32.515105 32.515105 0 0 0 29.737773 22.557354h941.741301c24.566968 0 31.860287-4.967585 40.666461-27.818478v-10.31903c-8.851334-22.805733-16.122073-27.750739-40.666461-27.750739z m-98.832371-0.338699H148.011466V498.813319c0-178.336318 120.554267-330.660551 291.326307-368.030342C633.141345 88.219802 826.877178 213.131996 872.804763 410.164498a383.633076 383.633076 0 0 1 10.11581 87.497244v460.088732zM533.902536 189.468225c-5.938523-0.858037-12.102845-0.13548-18.131687-0.13548-0.04516-0.541918-0.15806-1.083837-0.18064-1.670915-19.260684 2.235413-38.679427 3.29667-57.623991 6.8643-118.838192 22.896053-211.844939 114.864123-239.144079 235.59903-1.219316 5.351444-1.174157 10.38677-0.13548 15.625314 3.161191 16.009173 16.551092 27.4572 32.266726 27.29914 15.851114-0.1129 29.015215-11.448026 31.950606-27.637839 0.677398-3.680529 0.722558-7.564278 1.625755-11.177067a235.305491 235.305491 0 0 1 53.130585-99.10333c42.269636-47.034002 94.564763-73.791224 156.95312-79.210408 12.080265-1.038677 24.228269-0.474179 36.308534-1.106417a32.469945 32.469945 0 0 0 30.844189-31.092568 32.424785 32.424785 0 0 0-27.863638-34.25376z" fill="#ffffff" p-id="1516"></path></svg>