<?xml version="1.0" standalone="no"?><!DOCTYPE svg PUBLIC "-//W3C//DTD SVG 1.1//EN" "http://www.w3.org/Graphics/SVG/1.1/DTD/svg11.dtd"><svg t="1559036146688" class="icon" style="" viewBox="0 0 1024 1024" version="1.1" xmlns="http://www.w3.org/2000/svg" p-id="2940" xmlns:xlink="http://www.w3.org/1999/xlink" width="32" height="32"><defs><style type="text/css">@font-face { font-family: uc-nexus-iconfont; src: url("chrome-extension://pogijhnlcfmcppgimcaccdkmbedjkmhi/res/font_9qmmi8b8jsxxbt9.woff") format("woff"), url("chrome-extension://pogijhnlcfmcppgimcaccdkmbedjkmhi/res/font_9qmmi8b8jsxxbt9.ttf") format("truetype"); }
</style></defs><path d="M729.030445 499.60968L439.656518 800.174863l-145.486338-159.875097c-13.589383-15.188134-36.771272-15.98751-51.160032-2.398127-15.188134 13.589383-15.98751 36.771272-2.398126 51.160032l164.67135 180.65886c7.194379 7.993755 16.786885 11.990632 27.178767 11.990632 3.197502 0 6.395004-0.799375 9.592506-0.799375 2.398126 0.799375 4.796253 0.799375 6.395004 0.799375 9.592506 0 19.185012-3.996877 26.379391-11.191257l307.759563-319.750195c13.589383-14.388759 13.589383-37.570648-0.799376-51.160031-15.188134-14.388759-38.370023-14.388759-52.758782 0z m219.028884-352.52459h-144.686964V35.971897c0-19.984387-15.98751-35.971897-35.971897-35.971897s-35.971897 15.98751-35.971897 35.971897v110.313817h-439.656518V36.771272c0-19.984387-15.98751-35.971897-35.971897-35.971897s-35.971897 15.98751-35.971897 35.971897v110.313818h-143.887588c-41.567525 0-75.940671 34.373146-75.940671 75.940671v725.033568c0 41.567525 33.57377 75.940671 75.940671 75.940671h872.118658c41.567525 0 75.940671-34.373146 75.940671-75.940671V223.025761c-0.799375-42.366901-34.373146-75.940671-75.940671-75.940671z m-872.118658 71.943794h872.118658c1.598751 0 3.197502 1.598751 3.197502 3.197502v143.088212H72.743169V223.025761c0-2.398126 1.598751-3.996877 3.197502-3.996877z m872.118658 731.428571H75.940671c-1.598751 0-3.197502-1.598751-3.197502-3.197502V438.057767H951.256831v509.202186c0 1.598751-1.598751 3.197502-3.197502 3.197502z" fill="#ffffff" p-id="2941"></path></svg>