<?xml version="1.0" standalone="no"?><!DOCTYPE svg PUBLIC "-//W3C//DTD SVG 1.1//EN" "http://www.w3.org/Graphics/SVG/1.1/DTD/svg11.dtd"><svg t="1559033852133" class="icon" style="" viewBox="0 0 1024 1024" version="1.1" xmlns="http://www.w3.org/2000/svg" p-id="19748" xmlns:xlink="http://www.w3.org/1999/xlink" width="32" height="32"><defs><style type="text/css">@font-face { font-family: uc-nexus-iconfont; src: url("chrome-extension://pogijhnlcfmcppgimcaccdkmbedjkmhi/res/font_9qmmi8b8jsxxbt9.woff") format("woff"), url("chrome-extension://pogijhnlcfmcppgimcaccdkmbedjkmhi/res/font_9qmmi8b8jsxxbt9.ttf") format("truetype"); }
</style></defs><path d="M89.5 306.8c-0.2-69.1 26.9-135.5 75.2-184.9 10.6-10.6 14.6-26.1 10.6-40.5-4-14.5-15.5-25.6-30-29.3-14.5-3.7-29.9 0.8-40.3 11.6-133.5 136.7-131.8 355.4 3.8 490 16.3 16.2 42.7 16.1 58.9-0.2 16.2-16.3 16.1-42.7-0.2-58.9-50.1-49.6-78.2-117.3-78-187.8zM710.9 149c-16.6 15.9-17.1 42.3-1.2 58.9 54 56.3 52.9 145.5-2.6 200.3-10.9 10.4-15.4 25.9-11.7 40.5 3.7 14.6 15.1 26.1 29.7 30 14.6 3.9 30.1-0.4 40.6-11.3 87.8-86.9 89.6-228.2 4-317.3-7.7-8-18.2-12.6-29.2-12.8-10.9-0.1-21.6 4-29.6 11.7z m0 0" p-id="19749" fill="#ffffff"></path><path d="M919 63.7c-10.4-10.8-25.7-15.3-40.3-11.6-14.5 3.7-26 14.8-30 29.3-4 14.4 0.1 29.9 10.6 40.5 101.4 104 100.2 270.3-2.9 372.7-16.3 16.2-16.4 42.6-0.2 58.9 16.2 16.3 42.6 16.4 58.9 0.2 135.7-134.7 137.3-353.3 3.9-490zM317.3 467.2c16.2-16.4 16.1-42.7-0.3-58.9-55.4-54.9-56.6-144.1-2.6-200.3 15.9-16.6 15.4-43-1.2-58.9-16.6-15.9-43-15.4-58.9 1.2-85.5 89.1-83.7 230.4 4.1 317.3 16.3 16 42.7 15.9 58.9-0.4z m255.6-63.3c40.6-27.1 58.7-77.6 44.7-124.4-14-46.8-57-78.9-105.8-79.2-48.8-0.3-92.1 31.4-106.7 78-14.6 46.6 3 97.3 43.4 124.8L261.4 917.3c-7.8 21.6 3.3 45.5 24.9 53.4 21.6 7.8 45.5-3.4 53.4-25L379.3 837h262.6l40.5 111.5c7.2 19.5 28.7 29.6 48.3 22.5l7.5-2.7c19.5-7.2 29.6-28.7 22.5-48.3L572.9 403.9z m-62.3 72.4L561 614.8H460.2l50.4-138.5zM406.3 762.9l27-74.1H588l27 74.1H406.3z m0 0" p-id="19750" fill="#ffffff"></path></svg>