<?xml version="1.0" standalone="no"?><!DOCTYPE svg PUBLIC "-//W3C//DTD SVG 1.1//EN" "http://www.w3.org/Graphics/SVG/1.1/DTD/svg11.dtd"><svg t="1559037229760" class="icon" style="" viewBox="0 0 1735 1024" version="1.1" xmlns="http://www.w3.org/2000/svg" p-id="14408" xmlns:xlink="http://www.w3.org/1999/xlink" width="54.21875" height="32"><defs><style type="text/css">@font-face { font-family: uc-nexus-iconfont; src: url("chrome-extension://pogijhnlcfmcppgimcaccdkmbedjkmhi/res/font_9qmmi8b8jsxxbt9.woff") format("woff"), url("chrome-extension://pogijhnlcfmcppgimcaccdkmbedjkmhi/res/font_9qmmi8b8jsxxbt9.ttf") format("truetype"); }
</style></defs><path d="M1574.804388 523.885007a60.149621 60.149621 0 1 0 120.299242 0 60.149621 60.149621 0 0 0-120.299242 0z m-770.727652 500.114993a50.144896 50.144896 0 0 1-48.871567-38.866842l-161.955279-704.090118-128.424292 477.49825a50.20553 50.20553 0 0 1-95.620919 4.00189l-71.730848-198.942445H50.20553a50.144896 50.144896 0 1 1 0-100.289792h282.49706c21.100875 0 40.018901 13.278999 47.173796 33.167181l29.529098 81.917477 139.156633-517.577786a50.084261 50.084261 0 1 1 97.318691 1.819041l165.896535 721.249738 164.744475-518.79048a50.933147 50.933147 0 0 1 49.29601-34.986221 50.084261 50.084261 0 0 1 47.113161 37.836052l52.085206 205.854801h245.024816a50.20553 50.20553 0 1 1 0 100.289792h-284.073562a50.20553 50.20553 0 0 1-48.629028-37.836052l-18.493583-73.125447-167.048594 526.006009a49.962992 49.962992 0 0 1-47.719508 34.864952z" p-id="14409" fill="#ffffff"></path></svg>