<?xml version="1.0" standalone="no"?><!DOCTYPE svg PUBLIC "-//W3C//DTD SVG 1.1//EN" "http://www.w3.org/Graphics/SVG/1.1/DTD/svg11.dtd"><svg t="1559034634289" class="icon" style="" viewBox="0 0 1024 1024" version="1.1" xmlns="http://www.w3.org/2000/svg" p-id="27614" xmlns:xlink="http://www.w3.org/1999/xlink" width="32" height="32"><defs><style type="text/css">@font-face { font-family: uc-nexus-iconfont; src: url("chrome-extension://pogijhnlcfmcppgimcaccdkmbedjkmhi/res/font_9qmmi8b8jsxxbt9.woff") format("woff"), url("chrome-extension://pogijhnlcfmcppgimcaccdkmbedjkmhi/res/font_9qmmi8b8jsxxbt9.ttf") format("truetype"); }
</style></defs><path d="M198.4 236.8L102.4 140.8l44.8-44.8 102.4 102.4C326.4 147.2 416 121.6 512 121.6c211.2 0 384 128 512 384-57.6 115.2-121.6 204.8-198.4 268.8l89.6 89.6-44.8 44.8-96-96c-76.8 51.2-166.4 76.8-262.4 76.8-217.6 0-384-128-512-384 57.6-115.2 121.6-204.8 198.4-268.8z m44.8 44.8c-64 51.2-121.6 128-172.8 224 115.2 217.6 256 320 441.6 320 76.8 0 153.6-19.2 217.6-57.6l-57.6-64c-44.8 32-96 51.2-160 51.2-140.8 0-256-115.2-256-256 0-57.6 19.2-115.2 51.2-160l-64-57.6z m51.2-38.4l57.6 57.6c44.8-32 102.4-51.2 160-51.2 140.8 0 256 115.2 256 256 0 57.6-19.2 115.2-51.2 160l64 64c64-51.2 121.6-128 172.8-224-115.2-217.6-262.4-320-441.6-320-76.8 0-147.2 19.2-217.6 57.6z m64 147.2c-25.6 32-38.4 70.4-38.4 115.2 0 108.8 83.2 192 192 192 38.4 0 76.8-12.8 108.8-38.4L358.4 390.4z m44.8-44.8l268.8 268.8c19.2-32 32-70.4 32-108.8 0-108.8-83.2-192-192-192-38.4 0-76.8 12.8-108.8 32z" p-id="27615" fill="#ffffff"></path></svg>