<?xml version="1.0" standalone="no"?><!DOCTYPE svg PUBLIC "-//W3C//DTD SVG 1.1//EN" "http://www.w3.org/Graphics/SVG/1.1/DTD/svg11.dtd"><svg t="1559036088273" class="icon" style="" viewBox="0 0 1024 1024" version="1.1" xmlns="http://www.w3.org/2000/svg" p-id="2001" xmlns:xlink="http://www.w3.org/1999/xlink" width="32" height="32"><defs><style type="text/css">@font-face { font-family: uc-nexus-iconfont; src: url("chrome-extension://pogijhnlcfmcppgimcaccdkmbedjkmhi/res/font_9qmmi8b8jsxxbt9.woff") format("woff"), url("chrome-extension://pogijhnlcfmcppgimcaccdkmbedjkmhi/res/font_9qmmi8b8jsxxbt9.ttf") format("truetype"); }
</style></defs><path d="M170.666667 0h639.092198c72.624113 0 130.723404 58.099291 130.723405 130.723404v762.553192c0 72.624113-58.099291 130.723404-130.723405 130.723404H170.666667c-72.624113 0-130.723404-58.099291-130.723405-130.723404V130.723404C39.943262 58.099291 98.042553 0 170.666667 0z m0 65.361702c-36.312057 0-65.361702 29.049645-65.361702 65.361702v762.553192c0 36.312057 29.049645 65.361702 65.361702 65.361702h639.092198c36.312057 0 65.361702-29.049645 65.361702-65.361702V130.723404c0-36.312057-29.049645-65.361702-65.361702-65.361702H170.666667zM257.815603 319.546099c-14.524823 0-29.049645-14.524823-29.049646-29.049645s14.524823-36.312057 29.049646-36.312057h450.269503c14.524823 0 29.049645 14.524823 29.049646 29.049646s-7.262411 36.312057-29.049646 36.312056H257.815603z m0 203.347518c-14.524823 0-29.049645-14.524823-29.049646-29.049645s14.524823-36.312057 29.049646-36.312057h450.269503c14.524823 0 29.049645 14.524823 29.049646 29.049645s-7.262411 36.312057-29.049646 36.312057H257.815603z m0 210.609929c-14.524823 0-29.049645-14.524823-29.049646-29.049645s14.524823-36.312057 29.049646-36.312057h370.382979c14.524823 0 29.049645 14.524823 29.049645 29.049645s-14.524823 29.049645-29.049645 29.049646H257.815603z" fill="#ffffff" p-id="2002"></path></svg>