<?xml version="1.0" standalone="no"?><!DOCTYPE svg PUBLIC "-//W3C//DTD SVG 1.1//EN" "http://www.w3.org/Graphics/SVG/1.1/DTD/svg11.dtd"><svg t="1559034790706" class="icon" style="" viewBox="0 0 1024 1024" version="1.1" xmlns="http://www.w3.org/2000/svg" p-id="28572" xmlns:xlink="http://www.w3.org/1999/xlink" width="32" height="32"><defs><style type="text/css">@font-face { font-family: uc-nexus-iconfont; src: url("chrome-extension://pogijhnlcfmcppgimcaccdkmbedjkmhi/res/font_9qmmi8b8jsxxbt9.woff") format("woff"), url("chrome-extension://pogijhnlcfmcppgimcaccdkmbedjkmhi/res/font_9qmmi8b8jsxxbt9.ttf") format("truetype"); }
</style></defs><path d="M187.733333 568.888889C278.755556 477.866667 386.844444 432.355556 512 432.355556s233.244444 45.511111 324.266667 130.844444l-91.022223 91.022222C682.666667 597.333333 603.022222 563.2 512 563.2c-91.022222 0-170.666667 34.133333-233.244444 96.711111L187.733333 568.888889z m182.044445 187.733333c39.822222-39.822222 85.333333-56.888889 142.222222-56.888889s102.4 17.066667 142.222222 56.888889L512 893.155556l-142.222222-136.533334zM0 381.155556C142.222222 238.933333 312.888889 170.666667 512 170.666667s369.777778 68.266667 512 210.488889l-91.022222 91.022222c-113.777778-113.777778-256-170.666667-420.977778-170.666667-164.977778 0-301.511111 56.888889-420.977778 170.666667L0 381.155556z" p-id="28573" fill="#ffffff"></path></svg>